HIERARCHY
ROOT Hips
{
	OFFSET 0.000000 0.000000 0.000000
	CHANNELS 6 Xposition Yposition Zposition Zrotation Yrotation Xrotation 
	JOINT LHipJoint
	{
		OFFSET 0.000000 0.000000 0.000000
		CHANNELS 3 Zrotation Yrotation Xrotation
		JOINT LeftUpLeg
		{
			OFFSET 1.363060 -1.794630 0.839290
			CHANNELS 3 Zrotation Yrotation Xrotation
			JOINT LeftLeg
			{
				OFFSET 2.448110 -6.726130 0.000000
				CHANNELS 3 Zrotation Yrotation Xrotation
				JOINT LeftFoot
				{
					OFFSET 2.562200 -7.039590 0.000000
					CHANNELS 3 Zrotation Yrotation Xrotation
					JOINT LeftToeBase
					{
						OFFSET 0.157640 -0.433110 2.322550
						CHANNELS 3 Zrotation Yrotation Xrotation
						End Site
						{
							OFFSET 0.000000 0.000000 0.000000
						}
					}
				}
			}
		}
	}
	JOINT RHipJoint
	{
		OFFSET 0.000000 0.000000 0.000000
		CHANNELS 3 Zrotation Yrotation Xrotation
		JOINT RightUpLeg
		{
			OFFSET -1.305520 -1.794630 0.839290
			CHANNELS 3 Zrotation Yrotation Xrotation
			JOINT RightLeg
			{
				OFFSET -2.542530 -6.985550 0.000000
				CHANNELS 3 Zrotation Yrotation Xrotation
				JOINT RightFoot
				{
					OFFSET -2.568260 -7.056230 0.000000
					CHANNELS 3 Zrotation Yrotation Xrotation
					JOINT RightToeBase
					{
						OFFSET -0.164730 -0.452590 2.363150
						CHANNELS 3 Zrotation Yrotation Xrotation
						End Site
						{
							OFFSET 0.000000 0.000000 0.000000
						}
					}
				}
			}
		}
	}
	JOINT LowerBack
	{
		OFFSET 0.000000 0.000000 0.000000
		CHANNELS 3 Zrotation Yrotation Xrotation
		JOINT Spine
		{
			OFFSET 0.028270 2.035590 -0.193380
			CHANNELS 3 Zrotation Yrotation Xrotation
			JOINT Spine1
			{
				OFFSET 0.056720 2.048850 -0.042750
				CHANNELS 3 Zrotation Yrotation Xrotation
				JOINT Neck
				{
					OFFSET 0.000000 0.000000 0.000000
					CHANNELS 3 Zrotation Yrotation Xrotation
					JOINT Neck1
					{
						OFFSET -0.054170 1.746240 0.172020
						CHANNELS 3 Zrotation Yrotation Xrotation
						JOINT Head
						{
							OFFSET 0.104070 1.761360 -0.123970
							CHANNELS 3 Zrotation Yrotation Xrotation
							End Site
							{
								OFFSET 0.000000 0.000000 0.000000
							}
						}
					}
				}
				JOINT LeftShoulder
				{
					OFFSET 0.000000 0.000000 0.000000
					CHANNELS 3 Zrotation Yrotation Xrotation
					JOINT LeftArm
					{
						OFFSET 3.362410 1.200890 -0.311210
						CHANNELS 3 Zrotation Yrotation Xrotation
						JOINT LeftForeArm
						{
							OFFSET 4.983000 -0.000000 -0.000000
							CHANNELS 3 Zrotation Yrotation Xrotation
							JOINT LeftHand
							{
								OFFSET 3.483560 -0.000000 -0.000000
								CHANNELS 3 Zrotation Yrotation Xrotation
								JOINT LeftFingerBase
								{
									OFFSET 0.000000 0.000000 0.000000
									CHANNELS 3 Zrotation Yrotation Xrotation
									JOINT LeftHandIndex1
									{
										OFFSET 0.715260 -0.000000 -0.000000
										CHANNELS 3 Zrotation Yrotation Xrotation
										End Site
										{
											OFFSET 0.000000 0.000000 0.000000
										}
									}
								}
								JOINT LThumb
								{
									OFFSET 0.000000 0.000000 0.000000
									CHANNELS 3 Zrotation Yrotation Xrotation
									End Site
									{
										OFFSET 0.000000 0.000000 0.000000
									}
								}
							}
						}
					}
				}
				JOINT RightShoulder
				{
					OFFSET 0.000000 0.000000 0.000000
					CHANNELS 3 Zrotation Yrotation Xrotation
					JOINT RightArm
					{
						OFFSET -3.136600 1.374050 -0.404650
						CHANNELS 3 Zrotation Yrotation Xrotation
						JOINT RightForeArm
						{
							OFFSET -5.241900 -0.000000 -0.000000
							CHANNELS 3 Zrotation Yrotation Xrotation
							JOINT RightHand
							{
								OFFSET -3.444170 -0.000000 -0.000000
								CHANNELS 3 Zrotation Yrotation Xrotation
								JOINT RightFingerBase
								{
									OFFSET 0.000000 0.000000 0.000000
									CHANNELS 3 Zrotation Yrotation Xrotation
									JOINT RightHandIndex1
									{
										OFFSET -0.622530 -0.000000 -0.000000
										CHANNELS 3 Zrotation Yrotation Xrotation
										End Site
										{
											OFFSET 0.000000 0.000000 0.000000
										}
									}
								}
								JOINT RThumb
								{
									OFFSET 0.000000 0.000000 0.000000
									CHANNELS 3 Zrotation Yrotation Xrotation
									End Site
									{
										OFFSET 0.000000 0.000000 0.000000
									}
								}
							}
						}
					}
				}
			}
		}
	}
}
MOTION
Frames: 7
Frame Time: 0.008333
4.990382 17.403930 1.073398 10.439385 -87.105219 11.667530 -10.705481 -0.089457 -0.997313 -8.543410 6.070186 -22.069250 -2.336942 -1.239622 -5.474077 0.789158 7.555322 6.901664 2.328200 0.000000 -38.335800 9.502761 0.651780 -1.749746 4.286248 -6.755761 -19.538338 2.303343 1.359294 -3.696384 -1.322804 -9.447133 7.598750 -3.478800 -0.000001 -61.646299 1.113462 -2.143470 5.044237 0.097146 -2.090554 -2.028409 -3.987196 -2.036253 -0.600732 8.211538 -9.061803 -0.808210 -3.516946 -0.314278 1.638077 0.000000 0.000000 0.000000 5.096467 -1.826162 -1.686881 -78.411671 -8.483991 27.107261 -179.596060 -71.631290 179.913313 9.356128 -0.898609 -0.122110 -0.234252 0.598514 -0.000000 0.000000 0.000000 0.000000 0.000000 0.000000 0.000000 10.182970 -8.753375 1.702820 56.829602 20.962122 41.678346 0.021776 88.515888 -0.017239 -6.409257 3.984472 -0.247972 0.221227 -0.329099 -0.000000 0.000000 0.000000 0.000000 0.000000 0.000000 0.000000 
4.984769 17.405771 1.062493 9.523009 -86.443262 12.243805 -10.740999 -0.080744 -0.902064 -8.345680 5.704975 -21.682591 -2.302752 -1.229286 -5.522081 0.788268 7.470869 7.031955 2.302699 0.000000 -38.451100 9.485417 0.594532 -1.826423 4.341322 -7.082010 -19.032968 2.278204 1.345493 -3.652621 -1.388352 -9.779429 7.427100 -3.546799 -0.000000 -61.533900 0.903727 -2.089937 5.000133 0.081009 -2.027798 -2.022769 -3.844975 -1.978109 -0.548252 8.036160 -8.884348 -0.768451 -3.489716 -0.313278 1.651129 0.000000 0.000000 0.000000 5.112300 -1.793150 -1.709028 -78.458052 -8.490883 27.413684 -179.617951 -71.629454 179.913497 9.321759 -0.890244 -0.120931 -0.230930 0.598766 -0.000000 0.000000 0.000000 0.000000 0.000000 0.000000 0.000000 10.040241 -8.547147 1.854420 55.523562 22.126435 42.203108 0.016422 88.619714 -0.015815 -6.170471 3.892168 -0.233490 0.220781 -0.324544 -0.000000 0.000000 0.000000 0.000000 0.000000 0.000000 0.000000 
4.978347 17.407443 1.051096 8.798340 -85.784079 12.607638 -10.770060 -0.068439 -0.803861 -8.144411 5.335755 -21.277637 -2.268118 -1.218542 -5.559494 0.787813 7.401377 7.150525 2.281100 -0.000000 -38.572000 9.473630 0.534704 -1.896855 4.390908 -7.393416 -18.514142 2.249695 1.328981 -3.590072 -1.457061 -10.123457 7.244203 -3.614500 -0.000000 -61.420500 0.687629 -2.034387 4.945850 0.064668 -1.962691 -2.017328 -3.697343 -1.917594 -0.492317 7.845169 -8.709549 -0.734089 -3.457962 -0.312001 1.663087 0.000000 0.000000 0.000000 5.133249 -1.744836 -1.731305 -78.494207 -8.494948 27.731218 -179.641595 -71.625175 179.913708 9.285752 -0.881677 -0.119754 -0.227347 0.598920 -0.000000 0.000000 0.000000 0.000000 0.000000 0.000000 0.000000 9.865621 -8.334659 2.006677 54.161681 23.356745 42.661451 0.008332 88.768467 -0.014690 -5.969252 3.782703 -0.219909 0.220656 -0.320056 -0.000000 0.000000 0.000000 0.000000 0.000000 0.000000 0.000000 
4.970932 17.408982 1.039267 8.209205 -85.126409 12.819235 -10.794427 -0.051503 -0.702010 -7.945299 4.970648 -20.857015 -2.234719 -1.208130 -5.597147 0.787326 7.332686 7.265139 2.259000 -0.000000 -38.694800 9.466331 0.472254 -1.960419 4.435874 -7.695304 -17.989238 2.218754 1.310118 -3.505563 -1.528270 -10.475938 7.050497 -3.680900 0.000000 -61.307400 0.464694 -1.978525 4.879006 0.047912 -1.896967 -2.014095 -3.545340 -1.856579 -0.438957 7.640460 -8.526098 -0.699171 -3.423093 -0.310605 1.675688 0.000000 0.000000 0.000000 5.161382 -1.698228 -1.753131 -78.518400 -8.475316 28.045993 -179.668287 -71.609609 179.913920 9.250435 -0.874276 -0.118678 -0.223372 0.599009 -0.000000 0.000000 0.000000 0.000000 0.000000 0.000000 0.000000 9.665361 -8.106073 2.159537 52.730876 24.634536 43.033703 -0.002541 88.961788 -0.013859 -5.797387 3.645716 -0.206333 0.220568 -0.315490 -0.000000 0.000000 0.000000 0.000000 0.000000 0.000000 0.000000 
4.962585 17.410349 1.027041 7.727648 -84.470311 12.907038 -10.814171 -0.030167 -0.596172 -7.748444 4.603365 -20.422859 -2.201968 -1.197582 -5.629249 0.786902 7.270364 7.372256 2.238400 -0.000001 -38.818500 9.462981 0.408046 -2.018114 4.474252 -7.988069 -17.459659 2.185193 1.288660 -3.396232 -1.602170 -10.837222 6.844804 -3.745700 -0.000001 -61.193800 0.235605 -1.922310 4.800810 0.030837 -1.830550 -2.012865 -3.389183 -1.794958 -0.388558 7.419125 -8.333198 -0.663656 -3.384147 -0.309027 1.688910 0.000000 0.000000 0.000000 5.193930 -1.648722 -1.773947 -78.528345 -8.440443 28.360671 -179.697380 -71.586307 179.914145 9.215140 -0.865722 -0.117404 -0.219077 0.598949 -0.000000 0.000000 0.000000 0.000000 0.000000 0.000000 0.000000 9.431747 -7.859610 2.310483 51.234027 25.947721 43.305374 -0.015115 89.183611 -0.013276 -5.648106 3.492736 -0.193061 0.220185 -0.311016 -0.000000 0.000000 0.000000 0.000000 0.000000 0.000000 0.000000 
4.953237 17.411542 1.014485 7.330755 -83.814281 12.897190 -10.829854 -0.004071 -0.485692 -7.557007 4.236087 -19.978350 -2.170751 -1.187359 -5.661173 0.786301 7.207246 7.475933 2.217200 -0.000000 -38.941200 9.463155 0.342381 -2.069540 4.506085 -8.274283 -16.931380 2.149405 1.264822 -3.260123 -1.678634 -11.206439 6.627076 -3.808500 -0.000000 -61.079501 0.001241 -1.866533 4.709812 0.013398 -1.764237 -2.014917 -3.230037 -1.733571 -0.344950 7.181782 -8.124205 -0.624344 -3.341604 -0.307337 1.703682 0.000000 0.000000 0.000000 5.231424 -1.604522 -1.793402 -78.522752 -8.381636 28.668280 -179.729393 -71.552880 179.914379 9.180434 -0.855845 -0.116131 -0.214393 0.598711 -0.000000 0.000000 0.000000 0.000000 0.000000 0.000000 0.000000 9.166010 -7.589095 2.458293 49.664986 27.276600 43.462244 -0.028696 89.424564 -0.012875 -5.508429 3.330829 -0.180096 0.219092 -0.306771 -0.000000 0.000000 0.000000 0.000000 0.000000 0.000000 0.000000 
4.942886 17.412473 1.001545 7.013561 -83.159099 12.797669 -10.840763 0.026204 -0.370464 -7.370619 3.858308 -19.526291 -2.140099 -1.176869 -5.682953 0.785435 7.153931 7.568909 2.198900 -0.000000 -39.064300 9.466731 0.276384 -2.115765 4.528246 -8.551190 -16.404135 2.110718 1.238386 -3.095416 -1.758350 -11.585988 6.394547 -3.869000 0.000000 -60.962100 -0.235950 -1.810330 4.608106 -0.003838 -1.697167 -2.018572 -3.067342 -1.671462 -0.303230 6.920847 -7.909632 -0.587043 -3.292499 -0.305278 1.718295 0.000000 0.000000 0.000000 5.266393 -1.543816 -1.811113 -78.497997 -8.327682 28.984031 -179.762082 -71.519456 179.914650 9.144816 -0.841174 -0.114360 -0.209627 0.598165 -0.000000 0.000000 0.000000 0.000000 0.000000 0.000000 0.000000 8.847725 -7.302812 2.598405 48.043402 28.617152 43.502765 -0.041105 89.652411 -0.012553 -5.371804 3.193106 -0.168839 0.216942 -0.303243 -0.000000 0.000000 0.000000 0.000000 0.000000 0.000000 0.000000 
